<svg width="40" height="40" viewBox="0 0 40 40" fill="none" xmlns="http://www.w3.org/2000/svg">
<path d="M0 20C0 10.5719 0 5.85786 2.92893 2.92893C5.85786 0 10.5719 0 20 0C29.4281 0 34.1421 0 37.0711 2.92893C40 5.85786 40 10.5719 40 20C40 29.4281 40 34.1421 37.0711 37.0711C34.1421 40 29.4281 40 20 40C10.5719 40 5.85786 40 2.92893 37.0711C0 34.1421 0 29.4281 0 20Z" fill="#212529"/>
<path fill-rule="evenodd" clip-rule="evenodd" d="M24 11C22.8954 11 22 11.8954 22 13V19H26.5V23H22V27C22 30.3137 19.3137 33 16 33H15C11.6863 33 9 30.3137 9 27V25C9 21.6863 11.6863 19 15 19H18V13C18 9.68629 20.6863 7 24 7H25C28.3137 7 31 9.68629 31 13V15.5H27V13C27 11.8954 26.1046 11 25 11H24ZM18 23H15C13.8954 23 13 23.8954 13 25V27C13 28.1046 13.8954 29 15 29H16C17.1046 29 18 28.1046 18 27V23Z" fill="#F8F9FA"/>
</svg>
